<?xml version="1.0" encoding="UTF-8" standalone="no"?>
<svg
   xmlns:dc="http://purl.org/dc/elements/1.1/"
   xmlns:cc="http://creativecommons.org/ns#"
   xmlns:rdf="http://www.w3.org/1999/02/22-rdf-syntax-ns#"
   xmlns:svg="http://www.w3.org/2000/svg"
   xmlns="http://www.w3.org/2000/svg"
   xmlns:sodipodi="http://sodipodi.sourceforge.net/DTD/sodipodi-0.dtd"
   xmlns:inkscape="http://www.inkscape.org/namespaces/inkscape"
   width="25px"
   height="23px"
   viewBox="0 0 25 23"
   version="1.1"
   id="svg3437"
   inkscape:version="0.91 r13725"
   sodipodi:docname="graphActive.svg">
  <metadata
     id="metadata3451">
    <rdf:RDF>
      <cc:Work
         rdf:about="">
        <dc:format>image/svg+xml</dc:format>
        <dc:type
           rdf:resource="http://purl.org/dc/dcmitype/StillImage" />
        <dc:title>graph</dc:title>
      </cc:Work>
    </rdf:RDF>
  </metadata>
  <sodipodi:namedview
     pagecolor="#ffffff"
     bordercolor="#666666"
     borderopacity="1"
     objecttolerance="10"
     gridtolerance="10"
     guidetolerance="10"
     inkscape:pageopacity="0"
     inkscape:pageshadow="2"
     inkscape:window-width="1280"
     inkscape:window-height="755"
     id="namedview3449"
     showgrid="false"
     showguides="true"
     inkscape:zoom="18.700483"
     inkscape:cx="14.778686"
     inkscape:cy="12.212401"
     inkscape:window-x="0"
     inkscape:window-y="1"
     inkscape:window-maximized="1"
     inkscape:current-layer="svg3437" />
  <!-- Generator: Sketch 50 (54983) - http://www.bohemiancoding.com/sketch -->
  <title
     id="title3439">graph</title>
  <desc
     id="desc3441">Created with Sketch.</desc>
  <defs
     id="defs3443" />
  <g
     id="after-Design-Sprint"
     transform="matrix(1.0002376,0,0,0.99974168,-3.5153707e-7,0.0059416)"
     style="fill:none;fill-rule:evenodd;stroke:none;stroke-width:1">
    <g
       id="2-select-Building"
       transform="translate(-20,-148)"
       style="fill:#696d74;fill-rule:nonzero">
      <g
         id="graph"
         transform="translate(20,148)">
        <path
           d="M 25,21.466667 25,23 0,23 0,0 l 1.5625,0 0,21.466667 23.4375,0 z m -3.794643,-1.533334 -3.125,0 0,-7.666666 3.125,0 0,7.666666 z m -12.4999999,0 -3.125,0 0,-15.333333 3.125,0 0,15.333333 z m 6.2499999,0 -3.125,0 0,-10.733333 3.125,0 0,10.733333 z"
           id="Shape"
           inkscape:connector-curvature="0" />
      </g>
    </g>
  </g>
  <path
     style="opacity:1;fill:#b2d7e1;fill-opacity:1;fill-rule:nonzero;stroke:none;stroke-opacity:1"
     d="m 0.04109826,11.488115 0,-11.47029179 0.74851302,0 0.74851302,0 0.013499,10.73501679 0.013499,10.735017 11.6975589,0.01349 11.697559,0.01349 0,0.721787 0,0.721786 -12.459572,0 -12.45957074,0 0,-11.470292 z"
     id="path5815"
     inkscape:connector-curvature="0" />
  <path
     style="opacity:1;fill:#b2d7e1;fill-opacity:1;fill-rule:nonzero;stroke:none;stroke-opacity:1"
     d="m 5.6024519,12.263496 0,-7.6468611 1.5507621,0 1.5507621,0 0,7.6468611 0,7.646862 -1.5507621,0 -1.5507621,0 0,-7.646862 z"
     id="path5817"
     inkscape:connector-curvature="0" />
  <path
     style="opacity:1;fill:#b2d7e1;fill-opacity:1;fill-rule:nonzero;stroke:none;stroke-opacity:1"
     d="m 11.858975,14.562902 0,-5.3474554 1.550762,0 1.550762,0 0,5.3474554 0,5.347456 -1.550762,0 -1.550762,0 0,-5.347456 z"
     id="path5819"
     inkscape:connector-curvature="0" />
  <path
     style="opacity:1;fill:#b2d7e1;fill-opacity:1;fill-rule:nonzero;stroke:none;stroke-opacity:1"
     d="m 18.115498,16.113664 0,-3.796693 1.524025,0 1.524024,0 0,3.796693 0,3.796694 -1.524024,0 -1.524025,0 0,-3.796694 z"
     id="path5821"
     inkscape:connector-curvature="0" />
</svg>
