<?xml version="1.0" encoding="UTF-8" standalone="no"?>
<svg
   xmlns:dc="http://purl.org/dc/elements/1.1/"
   xmlns:cc="http://creativecommons.org/ns#"
   xmlns:rdf="http://www.w3.org/1999/02/22-rdf-syntax-ns#"
   xmlns:svg="http://www.w3.org/2000/svg"
   xmlns="http://www.w3.org/2000/svg"
   xmlns:sodipodi="http://sodipodi.sourceforge.net/DTD/sodipodi-0.dtd"
   xmlns:inkscape="http://www.inkscape.org/namespaces/inkscape"
   width="25px"
   height="25px"
   viewBox="0 0 25 25"
   version="1.1"
   id="svg4191"
   inkscape:version="0.91 r13725"
   sodipodi:docname="help-active.svg">
  <metadata
     id="metadata4206">
    <rdf:RDF>
      <cc:Work
         rdf:about="">
        <dc:format>image/svg+xml</dc:format>
        <dc:type
           rdf:resource="http://purl.org/dc/dcmitype/StillImage" />
        <dc:title>help copy</dc:title>
      </cc:Work>
    </rdf:RDF>
  </metadata>
  <sodipodi:namedview
     pagecolor="#ffffff"
     bordercolor="#666666"
     borderopacity="1"
     objecttolerance="10"
     gridtolerance="10"
     guidetolerance="10"
     inkscape:pageopacity="0"
     inkscape:pageshadow="2"
     inkscape:window-width="1281"
     inkscape:window-height="760"
     id="namedview4204"
     showgrid="false"
     inkscape:zoom="22.12"
     inkscape:cx="12.5"
     inkscape:cy="12.005691"
     inkscape:window-x="23"
     inkscape:window-y="0"
     inkscape:window-maximized="0"
     inkscape:current-layer="after-Design-Sprint" />
  <!-- Generator: Sketch 50.2 (55047) - http://www.bohemiancoding.com/sketch -->
  <title
     id="title4193">help copy</title>
  <desc
     id="desc4195">Created with Sketch.</desc>
  <defs
     id="defs4197" />
  <g
     id="after-Design-Sprint"
     stroke="none"
     stroke-width="1"
     fill="none"
     fill-rule="evenodd">
    <circle
       id="Oval-2"
       cx="12.590416"
       cy="12.5"
       r="11.5"
       style="stroke:#666a72;stroke-width:2" />
    <path
       d="m 11.932752,15.282792 c -0.378,-0.414 -0.594,-0.954 -0.594,-1.584 0,-2.142 2.628,-2.394 2.628,-3.636 0,-0.558 -0.414,-1.026 -1.404,-1.026 -0.9,0 -1.656,0.45 -2.214,1.116 l -1.4579997,-1.638 c 0.954,-1.116 2.3939997,-1.746 3.9419997,-1.746 2.322,0 3.744,1.17 3.744,2.844 0,2.628 -3.006,2.826 -3.006,4.338 0,0.288 0.144,0.594 0.324,0.756 l -1.962,0.576 z m 0.864,3.87 c -0.792,0 -1.458,-0.666 -1.458,-1.458 0,-0.792 0.666,-1.458 1.458,-1.458 0.792,0 1.458,0.666 1.458,1.458 0,0.792 -0.666,1.458 -1.458,1.458 z"
       id="?"
       inkscape:connector-curvature="0"
       style="fill:#666a72" />
    <path
       style="opacity:1;fill:#696d74;fill-opacity:1;fill-rule:nonzero;stroke:none;stroke-opacity:1"
       d="M 11.826401,24.952508 C 8.3130547,24.738649 5.0348183,23.035819 2.8446353,20.287065 -0.24078197,16.414761 -0.75664887,11.121193 1.5243963,6.7394326 2.1217542,5.5919416 2.8725894,4.5783073 3.8196775,3.6407825 6.8874078,0.60402814 11.153134,-0.60715165 15.420434,0.34694676 c 4.485653,1.00291864 8.177893,4.64351434 9.285318,9.15544244 0.271696,1.1069568 0.318614,1.5400038 0.320045,2.9539448 0.0015,1.461974 -0.0441,1.893236 -0.317725,3.006329 -1.21151,4.928316 -5.26496,8.627071 -10.279824,9.380292 -0.391501,0.0588 -1.835403,0.169942 -1.968935,0.151553 -0.02487,-0.0034 -0.309675,-0.02232 -0.632912,-0.042 z m 1.975636,-2.007218 c 2.313073,-0.270574 4.403304,-1.261288 6.072292,-2.878103 1.72604,-1.672083 2.723125,-3.595499 3.125173,-6.028574 0.116021,-0.702128 0.116021,-2.372014 0,-3.074142 C 22.551197,8.2514561 21.269119,6.0100361 19.195298,4.3136924 18.175642,3.4796338 16.789231,2.7623337 15.456054,2.3790857 13.689048,1.8711251 11.673631,1.8619356 9.8273725,2.3534212 6.9653259,3.1153161 4.4729197,5.1704231 3.1671105,7.8451224 2.4378322,9.3389091 2.1406883,10.550961 2.0975936,12.20769 c -0.02959,1.137563 0.048816,1.876338 0.306618,2.889083 1.0672042,4.192387 4.6269602,7.325001 8.9139524,7.844352 0.690022,0.08359 1.78911,0.08544 2.483873,0.0042 l 0,2e-6 z"
       id="path4232"
       inkscape:connector-curvature="0" />
    <path
       style="opacity:1;fill:#696d74;fill-opacity:1;fill-rule:nonzero;stroke:none;stroke-opacity:1"
       d="M 11.713679,24.952904 C 8.7066049,24.737384 5.885533,23.442368 3.7550754,21.299498 2.7627892,20.30143 2.0103645,19.250339 1.4053307,18.017047 0.73869747,16.658193 0.35085609,15.348817 0.18003796,13.880385 0.10874644,13.267529 0.10947009,11.680791 0.18130595,11.100095 0.47455113,8.7296066 1.3334617,6.653509 2.8091002,4.7483774 3.210591,4.2300303 4.2228104,3.2077152 4.7513562,2.7867497 7.863415,0.30811941 11.855503,-0.5600729 15.689667,0.40790489 c 3.809702,0.96180221 7.006199,3.76453141 8.477946,7.43357151 0.618807,1.542675 0.882116,2.9336926 0.882116,4.6600656 0,1.033901 -0.07637,1.795611 -0.266726,2.660188 -1.063815,4.831823 -4.857136,8.573356 -9.701629,9.569179 -0.98282,0.202026 -2.37024,0.293483 -3.367695,0.221995 z m 2.440932,-2.054258 c 1.742387,-0.271969 3.356549,-0.953972 4.78442,-2.021477 0.561417,-0.419728 1.611805,-1.470115 2.031532,-2.031533 1.097662,-1.468208 1.796133,-3.165689 2.052377,-4.987855 0.07382,-0.524967 0.07382,-2.187511 0,-2.712478 C 22.701451,8.8591762 21.707234,6.8145433 20.124211,5.1839913 18.033966,3.0309891 15.238818,1.9018276 12.255877,2.0054055 11.075481,2.0463929 10.204143,2.2061453 9.096816,2.5845933 8.1070014,2.9228793 6.8177333,3.6386575 6.017179,4.2943518 4.2313249,5.7570564 2.9357832,7.7683883 2.4051185,9.9020845 2.2034589,10.712918 2.1288227,11.263168 2.0985173,12.162482 c -0.097486,2.89289 0.9278252,5.550011 2.9458778,7.634325 1.7929006,1.851769 4.0060945,2.913276 6.6463829,3.18778 0.397985,0.04138 2.007925,-0.01478 2.463833,-0.08594 z"
       id="path5342"
       inkscape:connector-curvature="0" />
    <path
       style="opacity:1;fill:#696d74;fill-opacity:1;fill-rule:nonzero;stroke:none;stroke-opacity:1"
       d="M 11.701723,24.956453 C 10.618126,24.872299 9.3707337,24.607604 8.3679928,24.249039 7.1848707,23.825973 5.7742134,23.033077 4.7513562,22.216216 4.2568766,21.821321 3.2739234,20.838183 2.8806159,20.345122 1.3945611,18.482168 0.475741,16.290443 0.17992815,13.902989 0.10746794,13.318175 0.10784454,11.680395 0.18057267,11.100095 0.48689887,8.6559122 1.3963639,6.4974186 2.9139653,4.6127536 3.2689396,4.1719212 4.2740185,3.1679803 4.7061483,2.8225997 6.6314697,1.2837825 8.8050045,0.37044539 11.216094,0.08706671 c 0.693435,-0.08150036 2.206202,-0.06907104 2.915913,0.02395795 1.471219,0.19284729 2.651666,0.54938811 3.9783,1.20160074 3.649262,1.7940843 6.194679,5.2655255 6.828556,9.3127866 0.100238,0.640017 0.139128,2.444703 0.06787,3.149383 -0.430423,4.256311 -3.050435,8.022506 -6.896422,9.913416 -1.350891,0.664177 -2.55296,1.023716 -4.000904,1.19667 -0.733761,0.08765 -1.794639,0.119182 -2.40768,0.07157 z m 2.387898,-2.056446 c 3.043911,-0.427289 5.804378,-2.24426 7.455813,-4.907501 0.718165,-1.158172 1.233797,-2.579983 1.450311,-3.999101 0.104714,-0.686344 0.104714,-2.297382 0,-2.983726 C 22.634195,8.6399312 21.524358,6.5044651 19.804335,4.869009 18.50259,3.6312639 16.8496,2.7244896 15.128433,2.3039664 14.181161,2.0725248 13.687159,2.0164655 12.594937,2.0164655 c -1.118949,0 -1.629974,0.060546 -2.6157241,0.3099102 C 8.1409815,2.791391 6.54884,3.7055778 5.1792288,5.0824638 4.0492448,6.2184493 3.2780656,7.4051184 2.7451519,8.8279525 1.6612106,11.721984 1.9299341,15.035456 3.4649647,17.703541 c 1.6992966,2.953602 4.7141492,4.914328 8.0901893,5.261499 0.531393,0.05465 1.93925,0.01852 2.534467,-0.06503 z"
       id="path5348"
       inkscape:connector-curvature="0" />
    <path
       style="opacity:1;fill:#696d74;fill-opacity:1;fill-rule:nonzero;stroke:none;stroke-opacity:1"
       d="M 11.894213,24.97063 C 9.7123874,24.846146 7.5251804,24.115656 5.7007233,22.902108 4.9191917,22.382268 4.4646526,22.00846 3.7770386,21.320089 3.0678429,20.610113 2.7390956,20.20997 2.1932784,19.392373 0.23588495,16.460334 -0.38385645,12.800512 0.49992129,9.3924217 0.80269164,8.2248557 1.4023647,6.8274565 2.0175362,5.8559724 4.0504583,2.6455635 7.3622929,0.56363786 11.19349,0.0876728 c 0.582547,-0.07237211 2.220347,-0.07237211 2.802893,0 2.015528,0.25039717 3.846375,0.918645 5.456521,1.9915973 0.830548,0.5534522 1.269649,0.9144516 1.980188,1.6279782 1.605717,1.6124682 2.699008,3.53339 3.25562,5.7201526 0.298392,1.1722971 0.337906,1.5360981 0.336349,3.0967451 -0.0015,1.46913 -0.02035,1.661678 -0.274388,2.797711 -0.792215,3.542731 -3.243567,6.657059 -6.554084,8.326657 -1.935911,0.976341 -4.165386,1.444042 -6.302376,1.322116 z m 1.388815,-2.003649 c 4.379859,-0.266399 8.174187,-3.314056 9.391519,-7.543397 0.330109,-1.146888 0.363428,-1.414778 0.363428,-2.922042 0,-1.507264 -0.03332,-1.775154 -0.363428,-2.9220425 C 21.522784,5.5779633 18.093034,2.6354738 13.928571,2.0760542 13.305991,1.9924218 11.719475,2.0057208 11.103074,2.0997389 9.9321483,2.2783374 9.036991,2.5582259 7.9837251,3.0750645 5.8409896,4.1265073 4.1839822,5.7903783 3.1433016,7.9355384 2.7709613,8.7030451 2.5047185,9.4573422 2.3374745,10.21854 c -0.1764824,0.803246 -0.2251302,1.300179 -0.2257101,2.305606 -6.125e-4,1.062345 0.072065,1.67014 0.310561,2.597198 0.197262,0.766776 0.3647911,1.216795 0.7413438,1.99141 1.6949664,3.486751 5.2357363,5.76956 9.1374158,5.891085 0.136754,0.0043 0.578628,-0.01233 0.981943,-0.03686 z"
       id="path5350"
       inkscape:connector-curvature="0" />
    <path
       style="opacity:1;fill:#bce4ed;fill-opacity:1;fill-rule:nonzero;stroke:none;stroke-opacity:1"
       d="M 11.849005,24.974511 C 9.4045696,24.759335 7.5146334,24.114693 5.6329114,22.854253 2.6549602,20.859523 0.69564191,17.703826 0.20153259,14.106424 0.08418763,13.252085 0.09496163,11.576068 0.22318318,10.738432 0.42442866,9.4237504 0.78957269,8.2430772 1.3566327,7.0734846 2.0141725,5.717273 2.6891347,4.7721839 3.7773567,3.683962 4.8642789,2.5970399 5.7478825,1.9649687 7.124774,1.2894425 8.3375077,0.69445495 9.4885493,0.33764838 10.85443,0.13330179 c 0.85773,-0.12832318 2.449631,-0.14051905 3.292806,-0.0252269 2.34031,0.32000407 4.476732,1.22968077 6.291281,2.67879257 0.493767,0.3943257 1.476768,1.3773272 1.871094,1.871094 0.80151,1.0036343 1.599136,2.4151863 2.018108,3.5714286 0.235067,0.6487161 0.509097,1.7133621 0.616715,2.3960219 0.118478,0.751545 0.118698,3.00498 3.62e-4,3.75226 -0.639957,4.041459 -3.19932,7.529103 -6.834489,9.313363 -1.324005,0.649865 -2.530052,1.01472 -3.948781,1.194592 -0.555378,0.07041 -1.924531,0.123038 -2.312521,0.08888 z m 2.169982,-2.08242 c 2.013243,-0.243557 4.028273,-1.183937 5.614839,-2.620348 1.745057,-1.579902 2.898979,-3.676024 3.319366,-6.029695 0.07009,-0.392414 0.08456,-0.697986 0.08349,-1.76311 -0.0011,-1.133296 -0.0132,-1.351024 -0.1002,-1.808318 C 22.529438,8.5311026 21.534854,6.6188788 20.055318,5.1311794 19.171708,4.2426944 18.288769,3.6055401 17.201882,3.0720571 15.558857,2.2656025 13.852017,1.9335292 11.897457,2.0400579 7.9294132,2.2563267 4.3452499,4.8591595 2.836025,8.620504 2.4174312,9.6637382 2.2054108,10.622537 2.1261368,11.830763 c -0.2768161,4.218988 2.0205221,8.202815 5.8062719,10.068687 1.940467,0.956393 3.8338213,1.265174 6.0865783,0.992641 z"
       id="path5352"
       inkscape:connector-curvature="0" />
    <path
       style="opacity:1;fill:#bce4ed;fill-opacity:1;fill-rule:nonzero;stroke:none;stroke-opacity:1"
       d="m 11.737984,14.994154 c -0.264133,-0.412908 -0.357541,-0.751427 -0.35722,-1.294601 3.3e-4,-0.558705 0.09129,-0.850523 0.402316,-1.290732 0.240249,-0.340034 0.398421,-0.483392 1.161728,-1.052927 0.858289,-0.640407 1.030031,-0.858502 1.027979,-1.305432 -0.003,-0.6475249 -0.526592,-1.0228604 -1.416962,-1.0156954 -0.73795,0.00594 -1.332002,0.2494127 -1.894774,0.7765793 L 10.339961,10.11212 9.6270447,9.3176811 8.9141278,8.5232418 9.2626697,8.183746 C 10.118596,7.3500342 11.215598,6.8863615 12.533774,6.8011393 c 1.542,-0.099693 2.950548,0.4387851 3.577438,1.3676287 0.327611,0.4854106 0.413592,0.7880734 0.415346,1.4620687 0.0012,0.4723813 -0.01529,0.6133133 -0.100656,0.8589513 -0.241211,0.694043 -0.60262,1.112933 -1.634349,1.894288 -0.760561,0.575992 -1.005035,0.813615 -1.137734,1.105847 -0.146544,0.322723 -0.102101,0.784067 0.104047,1.08007 0.06707,0.0963 0.07318,0.129468 0.02699,0.146403 -0.197538,0.07242 -1.767243,0.520227 -1.823568,0.520227 -0.03751,0 -0.137996,-0.109111 -0.223305,-0.242469 z"
       id="path5354"
       inkscape:connector-curvature="0" />
    <path
       style="opacity:1;fill:#bce4ed;fill-opacity:1;fill-rule:nonzero;stroke:none;stroke-opacity:1"
       d="m 12.333801,19.058178 c -0.440126,-0.168566 -0.786437,-0.549632 -0.921392,-1.013861 -0.175276,-0.602929 0.127633,-1.286219 0.714227,-1.611123 0.220906,-0.122356 0.280118,-0.134184 0.671737,-0.134184 0.390914,0 0.451065,0.01196 0.66993,0.133201 0.850277,0.471015 1.012687,1.591585 0.32919,2.271297 -0.27821,0.276669 -0.541068,0.388888 -0.95069,0.405867 -0.22171,0.0092 -0.40242,-0.0088 -0.513002,-0.0512 z"
       id="path5356"
       inkscape:connector-curvature="0" />
  </g>
</svg>
