<?xml version="1.0" encoding="UTF-8" standalone="no"?>
<svg
   xmlns:dc="http://purl.org/dc/elements/1.1/"
   xmlns:cc="http://creativecommons.org/ns#"
   xmlns:rdf="http://www.w3.org/1999/02/22-rdf-syntax-ns#"
   xmlns:svg="http://www.w3.org/2000/svg"
   xmlns="http://www.w3.org/2000/svg"
   xmlns:sodipodi="http://sodipodi.sourceforge.net/DTD/sodipodi-0.dtd"
   xmlns:inkscape="http://www.inkscape.org/namespaces/inkscape"
   width="25px"
   height="23px"
   viewBox="0 0 25 23"
   version="1.1"
   id="svg3437"
   inkscape:version="0.91 r13725"
   sodipodi:docname="searchActive.svg">
  <metadata
     id="metadata3451">
    <rdf:RDF>
      <cc:Work
         rdf:about="">
        <dc:format>image/svg+xml</dc:format>
        <dc:type
           rdf:resource="http://purl.org/dc/dcmitype/StillImage" />
        <dc:title>graph</dc:title>
      </cc:Work>
    </rdf:RDF>
  </metadata>
  <sodipodi:namedview
     pagecolor="#ffffff"
     bordercolor="#666666"
     borderopacity="1"
     objecttolerance="10"
     gridtolerance="10"
     guidetolerance="10"
     inkscape:pageopacity="0"
     inkscape:pageshadow="2"
     inkscape:window-width="1280"
     inkscape:window-height="755"
     id="namedview3449"
     showgrid="false"
     showguides="true"
     inkscape:zoom="18.700483"
     inkscape:cx="14.778686"
     inkscape:cy="12.212401"
     inkscape:window-x="23"
     inkscape:window-y="37"
     inkscape:window-maximized="0"
     inkscape:current-layer="svg3437" />
  <!-- Generator: Sketch 50 (54983) - http://www.bohemiancoding.com/sketch -->
  <title
     id="title3439">graph</title>
  <desc
     id="desc3441">Created with Sketch.</desc>
  <defs
     id="defs3443" />
  <path
     style="opacity:1;fill:#b2d7e1;fill-opacity:1;fill-rule:nonzero;stroke:none;stroke-opacity:1"
     d="m 22.12906,22.881799 c -0.11023,-0.03013 -0.261083,-0.08426 -0.335226,-0.120321 -0.188255,-0.09154 -0.749316,-0.560092 -1.71572,-1.432821 -0.454391,-0.410345 -1.330737,-1.200652 -1.947437,-1.756239 l -1.121276,-1.010158 -0.840332,0.388138 c -1.69774,0.784164 -2.87307,1.076038 -4.550883,1.130136 C 10.025787,20.13188 8.9733331,20.004956 7.7086821,19.60906 4.2734224,18.533662 1.6222065,15.936947 0.67909459,12.723979 0.41818152,11.835105 0.38836057,11.621349 0.36350057,10.461815 0.32409057,8.6234367 0.47394253,7.7808872 1.0924496,6.3633633 1.6455035,5.0958456 2.2806836,4.1955323 3.3257984,3.1977807 4.3362974,2.2330766 5.1281604,1.6846875 6.2514051,1.1717072 7.2147502,0.73175249 7.9757301,0.48633699 9.0572741,0.26681754 9.5467841,0.16746226 9.7013714,0.1567723 10.895662,0.1396897 c 1.400444,-0.0200311 1.726705,0.00294 2.593103,0.18255874 1.510946,0.31324724 2.875303,0.89412266 4.086605,1.73987486 0.620572,0.433292 1.847653,1.582201 2.310425,2.1632376 0.907553,1.1394814 1.509573,2.3838753 1.871271,3.8679685 0.126285,0.5181653 0.127037,0.5296559 0.127037,1.9390646 0,1.394777 -0.002,1.426435 -0.123676,1.948693 -0.258121,1.107999 -0.431513,1.555446 -1.062779,2.742593 l -0.432399,0.813157 0.545446,0.521254 c 0.299993,0.286689 1.243271,1.18663 2.096172,1.999867 0.8529,0.813238 1.626609,1.568496 1.719354,1.678352 0.27631,0.327288 0.363985,0.60213 0.363081,1.138168 -0.0012,0.69503 -0.09153,0.92071 -0.550369,1.37456 -0.282168,0.279102 -0.430843,0.388756 -0.68917,0.508295 -0.316815,0.146604 -0.350199,0.152932 -0.874835,0.165829 -0.359349,0.0088 -0.613829,-0.0053 -0.745868,-0.04137 z m -9.563927,-5.632627 c 1.154285,-0.201615 2.298092,-0.667578 3.248777,-1.323479 0.527229,-0.36375 1.471787,-1.269394 1.810599,-1.736009 0.689876,-0.950102 1.148052,-2.103617 1.30089,-3.275149 0.07502,-0.575072 0.02977,-1.6811473 -0.09028,-2.2067204 C 18.204595,5.9474563 16.032063,3.7985913 13.154732,3.0893053 12.370619,2.8960146 12.032382,2.8668561 10.86544,2.8919505 9.8859318,2.9130143 9.7791774,2.9230514 9.2966122,3.0394526 8.3764582,3.2614066 7.1432262,3.7880127 6.5230351,4.2238069 6.1302491,4.4998087 5.2399894,5.302718 4.9242754,5.6657005 4.5073225,6.1450782 3.8441045,7.3068129 3.6266534,7.9386967 c -0.5673199,1.6485598 -0.390244,3.7615193 0.447438,5.3390463 0.957656,1.803462 2.6042287,3.112662 4.7201467,3.753017 0.9431535,0.285433 1.2052997,0.319015 2.3563029,0.301849 0.695248,-0.01036 1.149741,-0.03718 1.414592,-0.08344 z"
     id="path6526"
     inkscape:connector-curvature="0" />
</svg>
