<?xml version="1.0" encoding="UTF-8" standalone="no"?>
<svg
   xmlns:dc="http://purl.org/dc/elements/1.1/"
   xmlns:cc="http://creativecommons.org/ns#"
   xmlns:rdf="http://www.w3.org/1999/02/22-rdf-syntax-ns#"
   xmlns:svg="http://www.w3.org/2000/svg"
   xmlns="http://www.w3.org/2000/svg"
   xmlns:sodipodi="http://sodipodi.sourceforge.net/DTD/sodipodi-0.dtd"
   xmlns:inkscape="http://www.inkscape.org/namespaces/inkscape"
   width="25px"
   height="23px"
   viewBox="0 0 25 23"
   version="1.1"
   id="svg3437"
   inkscape:version="0.91 r13725"
   sodipodi:docname="search.svg">
  <metadata
     id="metadata3451">
    <rdf:RDF>
      <cc:Work
         rdf:about="">
        <dc:format>image/svg+xml</dc:format>
        <dc:type
           rdf:resource="http://purl.org/dc/dcmitype/StillImage" />
        <dc:title>graph</dc:title>
      </cc:Work>
    </rdf:RDF>
  </metadata>
  <sodipodi:namedview
     pagecolor="#ffffff"
     bordercolor="#666666"
     borderopacity="1"
     objecttolerance="10"
     gridtolerance="10"
     guidetolerance="10"
     inkscape:pageopacity="0"
     inkscape:pageshadow="2"
     inkscape:window-width="1280"
     inkscape:window-height="755"
     id="namedview3449"
     showgrid="false"
     showguides="true"
     inkscape:zoom="18.700483"
     inkscape:cx="7.0248756"
     inkscape:cy="12.212401"
     inkscape:window-x="163"
     inkscape:window-y="0"
     inkscape:window-maximized="0"
     inkscape:current-layer="svg3437" />
  <!-- Generator: Sketch 50 (54983) - http://www.bohemiancoding.com/sketch -->
  <title
     id="title3439">graph</title>
  <desc
     id="desc3441">Created with Sketch.</desc>
  <defs
     id="defs3443" />
  <path
     style="opacity:1;fill:#696d74;fill-opacity:1;fill-rule:nonzero;stroke:none;stroke-opacity:1"
     d="m 21.910281,22.940873 c -0.338368,-0.160764 -0.589178,-0.370669 -2.870009,-2.401938 -1.011538,-0.900859 -1.89741,-1.67321 -1.968607,-1.716338 -0.120952,-0.07327 -0.187835,-0.05357 -1.019244,0.300066 -2.05806,0.875411 -3.055564,1.088623 -5.093065,1.088623 -1.8468947,0 -3.246431,-0.309579 -4.8516618,-1.073194 C 3.4264415,17.862611 1.4889024,15.709864 0.60314582,13.022137 0.25857763,11.976582 0.23559525,11.800977 0.23313602,10.194943 0.23142122,9.0423666 0.24916437,8.6773438 0.32562435,8.2971669 0.59231332,6.9712449 1.3921502,5.289437 2.2530583,4.2443724 2.6616723,3.7483527 3.680333,2.7577298 4.2113637,2.3399687 5.2999026,1.4836181 7.0793673,0.68194726 8.6475191,0.34142692 9.5506002,0.14532485 11.432347,0.06700995 12.488243,0.18158272 c 1.605187,0.17417516 3.477742,0.84199778 4.785063,1.70653088 1.014678,0.6710083 2.273223,1.8761283 2.967794,2.84181 0.660515,0.9183346 1.332028,2.4427655 1.558299,3.5375637 0.12131,0.5869465 0.122204,3.0701897 0.0013,3.7063127 -0.142823,0.75166 -0.421711,1.49624 -0.975669,2.604848 l -0.531109,1.062887 1.159713,1.109626 c 0.637841,0.610295 1.67127,1.620314 2.296507,2.244488 1.274061,1.271895 1.263542,1.255084 1.263542,2.019271 0,0.725303 -0.06298,0.883841 -0.541925,1.364134 -0.572945,0.574559 -0.757425,0.651461 -1.615681,0.673521 -0.619811,0.01593 -0.696179,0.0069 -0.945829,-0.111702 z m -8.898247,-5.681499 c 3.288905,-0.837408 5.634982,-3.410387 5.904395,-6.475447 C 19.053831,9.2207405 18.679977,7.7332974 17.824331,6.4388294 16.846608,4.9596785 15.513695,3.9288473 13.816582,3.3393698 12.785471,2.9812221 12.572365,2.9520985 11.016248,2.9566715 9.6877712,2.9605788 9.5865545,2.9680823 9.0971471,3.099011 7.960733,3.4030296 6.7302277,4.0027132 5.9719334,4.6220753 4.7389587,5.6291491 3.8255737,6.9545235 3.4019491,8.3512708 3.2744325,8.771711 3.2566479,8.9329481 3.2346884,9.8677199 c -0.027659,1.1775321 0.01859,1.5871331 0.2680295,2.3735731 0.5086061,1.603553 1.6350855,3.026351 3.1443782,3.971501 0.4212703,0.263809 1.3518528,0.690877 1.9131063,0.877974 0.9203905,0.306817 1.0318112,0.31964 2.5908966,0.298166 1.218218,-0.01678 1.49317,-0.03592 1.860935,-0.12956 z"
     id="path6621"
     inkscape:connector-curvature="0" />
</svg>
