<?xml version="1.0" encoding="UTF-8"?>
<svg width="20px" height="20px" viewBox="0 0 20 20" version="1.1" xmlns="http://www.w3.org/2000/svg" xmlns:xlink="http://www.w3.org/1999/xlink">
    <!-- Generator: Sketch 50 (54983) - http://www.bohemiancoding.com/sketch -->
    <title>search</title>
    <desc>Created with Sketch.</desc>
    <defs></defs>
    <g id="after-Design-Sprint" stroke="none" stroke-width="1" fill="none" fill-rule="evenodd">
        <g id="2-select-Building" transform="translate(-23.000000, -285.000000)" fill="#696D74" fill-rule="nonzero">
            <path d="M42.4497328,304.449733 C42.0976207,304.802052 41.6199299,305 41.1218218,305 C40.6237138,305 40.146023,304.802052 39.7939108,304.449733 L36.479455,301.135277 C35.1158575,302.008029 33.5043333,302.530178 31.7650892,302.530178 C26.9242556,302.530178 23,298.605923 23,293.765089 C23,288.924256 26.9242556,285 31.7650892,285 C36.6059227,285 40.5301783,288.924256 40.5301783,293.765089 C40.5301783,295.504333 40.0080294,297.115858 39.135277,298.479455 L42.4497328,301.793911 C42.8020519,302.146023 43,302.623714 43,303.121822 C43,303.61993 42.8020519,304.097621 42.4497328,304.449733 Z M31.7650892,287.504311 C28.3078876,287.504311 25.5043112,290.306635 25.5043112,293.765089 C25.5043112,297.223543 28.3078876,300.025867 31.7650892,300.025867 C35.2235429,300.025867 38.0258671,297.223543 38.0258671,293.765089 C38.0258671,290.306635 35.2235429,287.504311 31.7650892,287.504311 Z" id="search"></path>
        </g>
    </g>
</svg>