<?xml version="1.0" encoding="UTF-8" standalone="no"?>
<svg
   xmlns:dc="http://purl.org/dc/elements/1.1/"
   xmlns:cc="http://creativecommons.org/ns#"
   xmlns:rdf="http://www.w3.org/1999/02/22-rdf-syntax-ns#"
   xmlns:svg="http://www.w3.org/2000/svg"
   xmlns="http://www.w3.org/2000/svg"
   xmlns:sodipodi="http://sodipodi.sourceforge.net/DTD/sodipodi-0.dtd"
   xmlns:inkscape="http://www.inkscape.org/namespaces/inkscape"
   width="25px"
   height="23px"
   viewBox="0 0 25 23"
   version="1.1"
   id="svg3437"
   inkscape:version="0.91 r13725"
   sodipodi:docname="selectActive.svg">
  <metadata
     id="metadata3451">
    <rdf:RDF>
      <cc:Work
         rdf:about="">
        <dc:format>image/svg+xml</dc:format>
        <dc:type
           rdf:resource="http://purl.org/dc/dcmitype/StillImage" />
        <dc:title>graph</dc:title>
      </cc:Work>
    </rdf:RDF>
  </metadata>
  <sodipodi:namedview
     pagecolor="#ffffff"
     bordercolor="#666666"
     borderopacity="1"
     objecttolerance="10"
     gridtolerance="10"
     guidetolerance="10"
     inkscape:pageopacity="0"
     inkscape:pageshadow="2"
     inkscape:window-width="1280"
     inkscape:window-height="755"
     id="namedview3449"
     showgrid="false"
     showguides="true"
     inkscape:zoom="18.700483"
     inkscape:cx="7.0248756"
     inkscape:cy="12.212401"
     inkscape:window-x="163"
     inkscape:window-y="0"
     inkscape:window-maximized="0"
     inkscape:current-layer="svg3437" />
  <!-- Generator: Sketch 50 (54983) - http://www.bohemiancoding.com/sketch -->
  <title
     id="title3439">graph</title>
  <desc
     id="desc3441">Created with Sketch.</desc>
  <defs
     id="defs3443" />
  <g
     style="fill:none;fill-rule:evenodd;stroke:none;stroke-width:1"
     id="after-Design-Sprint"
     transform="matrix(1.1858877,0,0,1.0967635,0.0344873,0.04042881)">
    <g
       style="fill:#bce4ed;fill-rule:nonzero"
       id="2-select-Building"
       transform="translate(-22,-216)">
      <g
         id="g5460-copy-2"
         transform="translate(22,216)">
        <path
           inkscape:connector-curvature="0"
           d="m 0,1.76 0,6.0254546 c 0,0.9720212 0.78797884,1.76 1.76,1.76 l 6.0152961,0 c 0.9720211,0 1.76,-0.7879788 1.76,-1.76 l 0,-6.0254546 c 0,-0.97202116 -0.7879789,-1.76 -1.76,-1.76 L 1.76,0 C 0.78797884,0 0,0.78797884 0,1.76 Z m 11.464704,0.88 0,4.2654546 c 0,1.4580318 1.181968,2.64 2.64,2.64 l 4.255296,0 c 1.458032,0 2.64,-1.1819682 2.64,-2.64 L 21,2.64 C 21,1.1819682 19.818032,0 18.36,0 l -4.255296,0 c -1.458032,0 -2.64,1.1819682 -2.64,2.64 z m -8.6776448,-0.7309091 3.9611777,0 c 0.4860105,0 0.88,0.3939894 0.88,0.88 l 0,3.9672728 c 0,0.4860106 -0.3939895,0.88 -0.88,0.88 l -3.9611777,0 c -0.4860106,0 -0.88,-0.3939894 -0.88,-0.88 l 0,-3.9672728 c 0,-0.4860106 0.3939894,-0.88 0.88,-0.88 z m -2.76471075,11.3054551 0,6.025454 c 0,0.972021 0.78797883,1.76 1.75999995,1.76 l 6.0152961,0 c 0.9720212,0 1.76,-0.787979 1.76,-1.76 l 0,-6.025454 c 0,-0.972022 -0.7879788,-1.76 -1.76,-1.76 l -6.0152961,0 c -0.97202112,0 -1.75999995,0.787978 -1.75999995,1.76 z m 11.44235555,0 0,6.025454 c 0,0.972021 0.787979,1.76 1.76,1.76 L 19.24,21 C 20.212021,21 21,20.212021 21,19.24 l 0,-6.025454 c 0,-0.972022 -0.787979,-1.76 -1.76,-1.76 l -6.015296,0 c -0.972021,0 -1.76,0.787978 -1.76,1.76 z m -8.6552963,0.14909 3.9611776,0 c 0.4860106,0 0.88,0.39399 0.88,0.88 l 0,3.967273 c 0,0.486011 -0.3939894,0.88 -0.88,0.88 l -3.9611776,0 c -0.4860106,0 -0.88,-0.393989 -0.88,-0.88 l 0,-3.967273 c 0,-0.48601 0.3939894,-0.88 0.88,-0.88 z m 11.4423553,0 3.961178,0 c 0.48601,0 0.88,0.39399 0.88,0.88 l 0,3.967273 c 0,0.486011 -0.39399,0.88 -0.88,0.88 l -3.961178,0 c -0.48601,0 -0.88,-0.393989 -0.88,-0.88 l 0,-3.967273 c 0,-0.48601 0.39399,-0.88 0.88,-0.88 z"
           id="select" />
      </g>
    </g>
  </g>
</svg>
