<?xml version="1.0" encoding="UTF-8" standalone="no"?>
<svg
   xmlns:dc="http://purl.org/dc/elements/1.1/"
   xmlns:cc="http://creativecommons.org/ns#"
   xmlns:rdf="http://www.w3.org/1999/02/22-rdf-syntax-ns#"
   xmlns:svg="http://www.w3.org/2000/svg"
   xmlns="http://www.w3.org/2000/svg"
   xmlns:sodipodi="http://sodipodi.sourceforge.net/DTD/sodipodi-0.dtd"
   xmlns:inkscape="http://www.inkscape.org/namespaces/inkscape"
   width="25px"
   height="23px"
   viewBox="0 0 25 23"
   version="1.1"
   id="svg3437"
   inkscape:version="0.91 r13725"
   sodipodi:docname="select.svg">
  <metadata
     id="metadata3451">
    <rdf:RDF>
      <cc:Work
         rdf:about="">
        <dc:format>image/svg+xml</dc:format>
        <dc:type
           rdf:resource="http://purl.org/dc/dcmitype/StillImage" />
        <dc:title>graph</dc:title>
      </cc:Work>
    </rdf:RDF>
  </metadata>
  <sodipodi:namedview
     pagecolor="#ffffff"
     bordercolor="#666666"
     borderopacity="1"
     objecttolerance="10"
     gridtolerance="10"
     guidetolerance="10"
     inkscape:pageopacity="0"
     inkscape:pageshadow="2"
     inkscape:window-width="1280"
     inkscape:window-height="755"
     id="namedview3449"
     showgrid="false"
     showguides="true"
     inkscape:zoom="18.700483"
     inkscape:cx="7.0248756"
     inkscape:cy="12.212401"
     inkscape:window-x="163"
     inkscape:window-y="0"
     inkscape:window-maximized="0"
     inkscape:current-layer="svg3437" />
  <!-- Generator: Sketch 50 (54983) - http://www.bohemiancoding.com/sketch -->
  <title
     id="title3439">graph</title>
  <desc
     id="desc3441">Created with Sketch.</desc>
  <defs
     id="defs3443" />
  <g
     style="fill:none;fill-rule:evenodd;stroke:none;stroke-width:1"
     id="after-Design-Sprint"
     transform="matrix(1.1858877,0,0,1.0967635,0.0344873,0.04042881)">
    <g
       style="fill:#bce4ed;fill-rule:nonzero"
       id="2-select-Building"
       transform="translate(-22,-216)">
      <g
         id="g5460-copy-2"
         transform="translate(22,216)">
        <path
           inkscape:connector-curvature="0"
           d="m 0,1.76 0,6.0254546 c 0,0.9720212 0.78797884,1.76 1.76,1.76 l 6.0152961,0 c 0.9720211,0 1.76,-0.7879788 1.76,-1.76 l 0,-6.0254546 c 0,-0.97202116 -0.7879789,-1.76 -1.76,-1.76 L 1.76,0 C 0.78797884,0 0,0.78797884 0,1.76 Z m 11.464704,0.88 0,4.2654546 c 0,1.4580318 1.181968,2.64 2.64,2.64 l 4.255296,0 c 1.458032,0 2.64,-1.1819682 2.64,-2.64 L 21,2.64 C 21,1.1819682 19.818032,0 18.36,0 l -4.255296,0 c -1.458032,0 -2.64,1.1819682 -2.64,2.64 z m -8.6776448,-0.7309091 3.9611777,0 c 0.4860105,0 0.88,0.3939894 0.88,0.88 l 0,3.9672728 c 0,0.4860106 -0.3939895,0.88 -0.88,0.88 l -3.9611777,0 c -0.4860106,0 -0.88,-0.3939894 -0.88,-0.88 l 0,-3.9672728 c 0,-0.4860106 0.3939894,-0.88 0.88,-0.88 z m -2.76471075,11.3054551 0,6.025454 c 0,0.972021 0.78797883,1.76 1.75999995,1.76 l 6.0152961,0 c 0.9720212,0 1.76,-0.787979 1.76,-1.76 l 0,-6.025454 c 0,-0.972022 -0.7879788,-1.76 -1.76,-1.76 l -6.0152961,0 c -0.97202112,0 -1.75999995,0.787978 -1.75999995,1.76 z m 11.44235555,0 0,6.025454 c 0,0.972021 0.787979,1.76 1.76,1.76 L 19.24,21 C 20.212021,21 21,20.212021 21,19.24 l 0,-6.025454 c 0,-0.972022 -0.787979,-1.76 -1.76,-1.76 l -6.015296,0 c -0.972021,0 -1.76,0.787978 -1.76,1.76 z m -8.6552963,0.14909 3.9611776,0 c 0.4860106,0 0.88,0.39399 0.88,0.88 l 0,3.967273 c 0,0.486011 -0.3939894,0.88 -0.88,0.88 l -3.9611776,0 c -0.4860106,0 -0.88,-0.393989 -0.88,-0.88 l 0,-3.967273 c 0,-0.48601 0.3939894,-0.88 0.88,-0.88 z m 11.4423553,0 3.961178,0 c 0.48601,0 0.88,0.39399 0.88,0.88 l 0,3.967273 c 0,0.486011 -0.39399,0.88 -0.88,0.88 l -3.961178,0 c -0.48601,0 -0.88,-0.393989 -0.88,-0.88 l 0,-3.967273 c 0,-0.48601 0.39399,-0.88 0.88,-0.88 z"
           id="select" />
      </g>
    </g>
  </g>
  <path
     style="opacity:1;fill:#696d74;fill-opacity:1;fill-rule:nonzero;stroke:none;stroke-opacity:1"
     d="M 1.5974559,22.980732 C 0.94270556,22.80466 0.40910503,22.350139 0.19911726,21.789628 0.09487556,21.51138 0.09222534,21.395782 0.10655673,17.752299 L 0.12131057,14.00142 0.26302866,13.732988 C 0.44667772,13.385134 0.87370964,12.988621 1.2593526,12.807871 l 0.3057709,-0.143315 4.144278,0 4.144278,0 0.3596045,0.170351 c 0.620538,0.293961 1.006446,0.793893 1.112444,1.441133 0.07312,0.44648 0.06772,6.758628 -0.0061,7.16189 -0.143556,0.783938 -0.75925,1.391274 -1.5888702,1.567301 -0.1955046,0.04148 -1.455701,0.05903 -4.0640662,0.05661 -3.1272885,-0.0029 -3.8305558,-0.01693 -4.0692077,-0.08111 z m 6.921572,-2.101397 c 0.2616665,-0.118859 0.4825939,-0.36973 0.5611171,-0.637171 0.039177,-0.133432 0.052737,-0.958917 0.04153,-2.528251 l -0.01664,-2.330132 -0.147115,-0.222222 C 8.877008,15.039337 8.7085631,14.884719 8.583599,14.817963 l -0.227207,-0.121374 -2.6469905,0 c -2.9390642,0 -2.8168269,-0.01405 -3.1615411,0.363365 -0.2513374,0.275179 -0.2706353,0.501632 -0.2515686,2.952057 0.018927,2.432473 0.014953,2.399163 0.3202552,2.684218 0.2984778,0.278682 0.3060137,0.279366 3.0928545,0.280353 2.4031845,8.5e-4 2.609376,-0.0063 2.8096264,-0.09725 z"
     id="path7307"
     inkscape:connector-curvature="0" />
  <path
     style="opacity:1;fill:#696d74;fill-opacity:1;fill-rule:nonzero;stroke:none;stroke-opacity:1"
     d="M 1.5396827,10.413112 C 0.95251552,10.255326 0.48119796,9.8698698 0.21651624,9.3309912 l -0.14868022,-0.302705 0,-3.7432189 0,-3.7432188 0.13909336,-0.2965501 C 0.38008391,0.87612901 0.61138,0.60914832 0.93827509,0.40111982 1.4732376,0.06068203 1.3737426,0.06715692 5.8211906,0.08335174 l 4.0324889,0.01468379 0.3058565,0.14339512 c 0.404017,0.1894154 0.78849,0.55684433 0.981503,0.93799095 l 0.156453,0.3089523 0,3.7699562 0,3.7699561 -0.142786,0.3046178 c -0.256992,0.5482607 -0.722507,0.91886 -1.3641051,1.085975 -0.4521594,0.117773 -7.8103305,0.112629 -8.2509182,-0.0058 z M 8.6400376,8.2394766 C 8.7622751,8.1585637 8.91089,7.9970935 8.9702932,7.8806538 9.0738579,7.6776494 9.0782985,7.5711703 9.0782985,5.2906788 c 0,-1.5469295 -0.019839,-2.4308877 -0.056754,-2.528803 C 8.9903291,2.6790809 8.8887157,2.5324737 8.7957357,2.436082 8.4869897,2.1160063 8.368127,2.1032977 5.6863273,2.1036296 4.1105301,2.1038221 3.202269,2.1241523 3.0624111,2.1623554 2.772367,2.2415827 2.521925,2.4407567 2.3919177,2.6955922 2.2875425,2.9001844 2.2843988,2.9891561 2.2988309,5.3300872 l 0.014936,2.4227517 0.1426847,0.2155452 c 0.083014,0.1254053 0.2395546,0.2638215 0.3743219,0.330984 0.2292615,0.1142542 0.2590993,0.1152938 2.9093258,0.1013311 L 8.4177883,8.3865915 8.6400376,8.2394766 Z"
     id="path7309"
     inkscape:connector-curvature="0" />
  <path
     style="opacity:1;fill:#696d74;fill-opacity:1;fill-rule:nonzero;stroke:none;stroke-opacity:1"
     d="M 16.029991,10.415412 C 14.998673,10.193111 14.116214,9.413958 13.773991,8.4235125 13.65093,8.0673554 13.650373,8.0531028 13.650373,5.2583301 l 0,-2.8074142 0.125263,-0.3475846 c 0.353867,-0.981927 1.173365,-1.70632083 2.205596,-1.94963309 0.500247,-0.11791561 6.113704,-0.11968524 6.612477,-0.002085 0.579841,0.13671494 1.015467,0.38380294 1.458554,0.82729523 0.440218,0.44062023 0.646931,0.77776493 0.772532,1.25997843 0.117092,0.4495459 0.120756,5.6228942 0.0043,6.0604647 -0.279377,1.049659 -1.202682,1.884534 -2.33979,2.115695 -0.57313,0.11651 -5.919073,0.116813 -6.459307,3.74e-4 l -1e-6,-9e-6 z"
     id="path7311"
     inkscape:connector-curvature="0" />
  <path
     style="opacity:1;fill:#696d74;fill-opacity:1;fill-rule:nonzero;stroke:none;stroke-opacity:1"
     d="m 15.201135,22.991241 c -0.617049,-0.150056 -1.141538,-0.576958 -1.408498,-1.146433 l -0.142264,-0.303476 -0.01556,-3.492039 c -0.01006,-2.259162 0.0041,-3.598365 0.04012,-3.793199 0.120137,-0.649884 0.495259,-1.128472 1.114411,-1.421789 l 0.358317,-0.169749 4.145403,0 4.145402,0 0.351244,0.172917 c 0.456641,0.224803 0.847208,0.633883 1.003164,1.050712 0.116381,0.311054 0.116644,0.321482 0.101919,4.035978 l -0.01476,3.724118 -0.122819,0.249317 c -0.173056,0.351297 -0.489431,0.692388 -0.797984,0.860322 -0.567737,0.309002 -0.549852,0.307847 -4.691891,0.302889 -2.786305,-0.0033 -3.870092,-0.02188 -4.0662,-0.06957 z m 6.90043,-2.111906 c 0.242836,-0.110306 0.485709,-0.370746 0.545917,-0.585408 0.02205,-0.07861 0.04009,-1.20173 0.04009,-2.495814 l 0,-2.35288 -0.133112,-0.232511 c -0.082,-0.143232 -0.22573,-0.286962 -0.374322,-0.374322 l -0.24121,-0.141811 -2.526956,-0.01535 c -1.622844,-0.0099 -2.600495,0.0044 -2.732495,0.03999 -0.314817,0.08477 -0.556977,0.272727 -0.689593,0.535237 -0.119257,0.236067 -0.120318,0.258586 -0.120318,2.554696 0,1.969916 0.01238,2.346169 0.08276,2.514612 0.110408,0.264243 0.273324,0.433531 0.532193,0.553007 0.198645,0.09168 0.39885,0.09872 2.807414,0.09872 2.402029,0 2.609473,-0.0072 2.809627,-0.09817 z"
     id="path7313"
     inkscape:connector-curvature="0" />
</svg>
