<?xml version="1.0" encoding="UTF-8"?>
<svg width="21px" height="21px" viewBox="0 0 21 21" version="1.1" xmlns="http://www.w3.org/2000/svg" xmlns:xlink="http://www.w3.org/1999/xlink">
    <!-- Generator: Sketch 50 (54983) - http://www.bohemiancoding.com/sketch -->
    <title>select</title>
    <desc>Created with Sketch.</desc>
    <defs></defs>
    <g id="after-Design-Sprint" stroke="none" stroke-width="1" fill="none" fill-rule="evenodd">
        <g id="2-select-Building" transform="translate(-22.000000, -216.000000)" fill="#BCE4ED" fill-rule="nonzero">
            <g id="g5460-copy-2" transform="translate(22.000000, 216.000000)">
                <path d="M0,1.75999999 L0,7.78545464 C1.1903826e-16,8.7574758 0.787978836,9.54545463 1.75999999,9.54545463 L7.77529608,9.54545463 C8.74731724,9.54545463 9.53529607,8.7574758 9.53529607,7.78545464 L9.53529607,1.75999999 C9.53529607,0.787978836 8.74731724,2.65531821e-16 7.77529608,4.4408921e-16 L1.75999999,4.4408921e-16 C0.787978836,6.22646599e-16 3.12625847e-16,0.787978836 0,1.75999999 Z M11.4647037,2.63999999 L11.4647037,6.90545465 C11.4647037,8.36348638 12.646672,9.54545463 14.1047037,9.54545463 L18.36,9.54545463 C19.8180317,9.54545463 21,8.36348638 21,6.90545465 L21,2.63999999 C21,1.18196825 19.8180317,-2.67836084e-16 18.36,0 L14.1047037,0 C12.646672,2.67836084e-16 11.4647037,1.18196825 11.4647037,2.63999999 Z M2.78705921,1.90909093 L6.74823686,1.90909093 C7.23424744,1.90909093 7.62823686,2.30308034 7.62823686,2.78909092 L7.62823686,6.75636371 C7.62823686,7.24237429 7.23424744,7.63636371 6.74823686,7.63636371 L2.78705921,7.63636371 C2.30104863,7.63636371 1.90705921,7.24237429 1.90705921,6.75636371 L1.90705921,2.78909092 C1.90705921,2.30308034 2.30104863,1.90909093 2.78705921,1.90909093 Z M0.0223484455,13.2145455 L0.0223484455,19.24 C0.0223484455,20.2120212 0.810327282,21 1.78234844,21 L7.79764453,21 C8.76966568,21 9.55764452,20.2120212 9.55764452,19.24 L9.55764452,13.2145455 C9.55764452,12.2425244 8.76966568,11.4545456 7.79764453,11.4545456 L1.78234844,11.4545456 C0.810327282,11.4545456 0.0223484455,12.2425244 0.0223484455,13.2145455 Z M11.4647037,13.2145455 L11.4647037,19.24 C11.4647037,20.2120212 12.2526826,21 13.2247037,21 L19.24,21 C20.2120212,21 21,20.2120212 21,19.24 L21,13.2145455 C21,12.2425244 20.2120212,11.4545456 19.24,11.4545456 L13.2247037,11.4545456 C12.2526826,11.4545456 11.4647037,12.2425244 11.4647037,13.2145455 Z M2.80940766,13.3636363 L6.77058531,13.3636363 C7.25659589,13.3636363 7.65058531,13.7576257 7.65058531,14.2436363 L7.65058531,18.2109091 C7.65058531,18.6969197 7.25659589,19.0909091 6.77058531,19.0909091 L2.80940766,19.0909091 C2.32339708,19.0909091 1.92940766,18.6969197 1.92940766,18.2109091 L1.92940766,14.2436363 C1.92940766,13.7576257 2.32339708,13.3636363 2.80940766,13.3636363 Z M14.2517631,13.3636363 L18.2129408,13.3636363 C18.6989514,13.3636363 19.0929408,13.7576257 19.0929408,14.2436363 L19.0929408,18.2109091 C19.0929408,18.6969197 18.6989514,19.0909091 18.2129408,19.0909091 L14.2517631,19.0909091 C13.7657526,19.0909091 13.3717631,18.6969197 13.3717631,18.2109091 L13.3717631,14.2436363 C13.3717631,13.7576257 13.7657526,13.3636363 14.2517631,13.3636363 Z" id="select"></path>
            </g>
        </g>
    </g>
</svg>